<mxfile host="Electron" modified="2024-07-17T02:15:23.775Z" agent="Mozilla/5.0 (Windows NT 10.0; Win64; x64) AppleWebKit/537.36 (KHTML, like Gecko) draw.io/24.5.3 Chrome/124.0.6367.207 Electron/30.0.6 Safari/537.36" etag="btLa1N9nwdKFehzWBJfv" version="24.5.3" type="device">
  <diagram id="C5RBs43oDa-KdzZeNtuy" name="Page-1">
    <mxGraphModel dx="1050" dy="621" grid="1" gridSize="10" guides="1" tooltips="1" connect="1" arrows="1" fold="1" page="1" pageScale="1" pageWidth="827" pageHeight="1169" math="0" shadow="0">
      <root>
        <mxCell id="WIyWlLk6GJQsqaUBKTNV-0" />
        <mxCell id="WIyWlLk6GJQsqaUBKTNV-1" parent="WIyWlLk6GJQsqaUBKTNV-0" />
        <mxCell id="EZEozYHGCICu44l_HJw_-0" value="Player&lt;hr&gt;int id;&lt;div&gt;int curPosition;&lt;/div&gt;" style="rounded=0;whiteSpace=wrap;html=1;" vertex="1" parent="WIyWlLk6GJQsqaUBKTNV-1">
          <mxGeometry x="80" y="80" width="120" height="60" as="geometry" />
        </mxCell>
        <mxCell id="EZEozYHGCICu44l_HJw_-1" value="Dice&lt;hr&gt;int diceCount;&lt;div&gt;&lt;hr&gt;int rollDice();&lt;/div&gt;" style="rounded=0;whiteSpace=wrap;html=1;" vertex="1" parent="WIyWlLk6GJQsqaUBKTNV-1">
          <mxGeometry x="280" y="80" width="130" height="80" as="geometry" />
        </mxCell>
        <mxCell id="EZEozYHGCICu44l_HJw_-2" value="Jump&lt;hr&gt;int start;&lt;div&gt;int end;&lt;/div&gt;" style="rounded=0;whiteSpace=wrap;html=1;" vertex="1" parent="WIyWlLk6GJQsqaUBKTNV-1">
          <mxGeometry x="480" y="80" width="120" height="60" as="geometry" />
        </mxCell>
        <mxCell id="EZEozYHGCICu44l_HJw_-4" style="edgeStyle=orthogonalEdgeStyle;rounded=0;orthogonalLoop=1;jettySize=auto;html=1;exitX=0.5;exitY=0;exitDx=0;exitDy=0;entryX=0.5;entryY=1;entryDx=0;entryDy=0;" edge="1" parent="WIyWlLk6GJQsqaUBKTNV-1" source="EZEozYHGCICu44l_HJw_-3" target="EZEozYHGCICu44l_HJw_-2">
          <mxGeometry relative="1" as="geometry" />
        </mxCell>
        <mxCell id="EZEozYHGCICu44l_HJw_-3" value="Cell&lt;hr&gt;Jump jump;" style="rounded=0;whiteSpace=wrap;html=1;" vertex="1" parent="WIyWlLk6GJQsqaUBKTNV-1">
          <mxGeometry x="480" y="240" width="120" height="60" as="geometry" />
        </mxCell>
        <mxCell id="EZEozYHGCICu44l_HJw_-6" style="edgeStyle=orthogonalEdgeStyle;rounded=0;orthogonalLoop=1;jettySize=auto;html=1;exitX=0.5;exitY=0;exitDx=0;exitDy=0;" edge="1" parent="WIyWlLk6GJQsqaUBKTNV-1" source="EZEozYHGCICu44l_HJw_-5" target="EZEozYHGCICu44l_HJw_-3">
          <mxGeometry relative="1" as="geometry" />
        </mxCell>
        <mxCell id="EZEozYHGCICu44l_HJw_-5" value="Board&lt;hr&gt;cell[][] board;&lt;hr&gt;addSnakesAndLadder();&lt;div&gt;getCell(int val);&lt;/div&gt;" style="rounded=0;whiteSpace=wrap;html=1;" vertex="1" parent="WIyWlLk6GJQsqaUBKTNV-1">
          <mxGeometry x="480" y="360" width="140" height="120" as="geometry" />
        </mxCell>
        <mxCell id="EZEozYHGCICu44l_HJw_-9" style="edgeStyle=orthogonalEdgeStyle;rounded=0;orthogonalLoop=1;jettySize=auto;html=1;exitX=0.75;exitY=0;exitDx=0;exitDy=0;entryX=0.25;entryY=1;entryDx=0;entryDy=0;" edge="1" parent="WIyWlLk6GJQsqaUBKTNV-1" source="EZEozYHGCICu44l_HJw_-7" target="EZEozYHGCICu44l_HJw_-1">
          <mxGeometry relative="1" as="geometry" />
        </mxCell>
        <mxCell id="EZEozYHGCICu44l_HJw_-10" style="edgeStyle=orthogonalEdgeStyle;rounded=0;orthogonalLoop=1;jettySize=auto;html=1;exitX=1;exitY=0.75;exitDx=0;exitDy=0;entryX=0;entryY=0.25;entryDx=0;entryDy=0;" edge="1" parent="WIyWlLk6GJQsqaUBKTNV-1" source="EZEozYHGCICu44l_HJw_-7" target="EZEozYHGCICu44l_HJw_-5">
          <mxGeometry relative="1" as="geometry" />
        </mxCell>
        <mxCell id="EZEozYHGCICu44l_HJw_-7" value="Game&lt;hr&gt;Board board;&lt;div&gt;Dice dice;&lt;/div&gt;&lt;div&gt;Dequeue&amp;lt;Player&amp;gt; list;&lt;/div&gt;&lt;hr&gt;void startGame();&lt;div&gt;void findPlayerTurn();&lt;/div&gt;&lt;div&gt;int jumpCheck(int pos);&lt;/div&gt;" style="whiteSpace=wrap;html=1;aspect=fixed;" vertex="1" parent="WIyWlLk6GJQsqaUBKTNV-1">
          <mxGeometry x="100" y="240" width="200" height="200" as="geometry" />
        </mxCell>
        <mxCell id="EZEozYHGCICu44l_HJw_-8" style="edgeStyle=orthogonalEdgeStyle;rounded=0;orthogonalLoop=1;jettySize=auto;html=1;exitX=0.25;exitY=0;exitDx=0;exitDy=0;entryX=0.61;entryY=1.067;entryDx=0;entryDy=0;entryPerimeter=0;" edge="1" parent="WIyWlLk6GJQsqaUBKTNV-1" source="EZEozYHGCICu44l_HJw_-7" target="EZEozYHGCICu44l_HJw_-0">
          <mxGeometry relative="1" as="geometry" />
        </mxCell>
        <mxCell id="EZEozYHGCICu44l_HJw_-11" value="Sanke and Ladder" style="text;html=1;align=center;verticalAlign=middle;resizable=0;points=[];autosize=1;strokeColor=none;fillColor=none;" vertex="1" parent="WIyWlLk6GJQsqaUBKTNV-1">
          <mxGeometry x="230" y="8" width="120" height="30" as="geometry" />
        </mxCell>
      </root>
    </mxGraphModel>
  </diagram>
</mxfile>
